# xmcd
#
# Track frame offsets: 
#        150
#        13826
#        24401
#        35583
#        45305
#        56997
#        69907
#        82716
#        92148
#        101113
#        111257
#        122688
#        136203
#        152171
#        161955
#        174510
#        188255
#        200662
#        211838
#        221889
#        235512
#        248545
#        258223
#        270722
#        283363
#        296971
#        307685
#        319051
#
# Disc length: 4421 seconds
#
# Revision: 5
# Processed by: cddbd v1.5.2PL0 Copyright (c) Steve Scherf et al.
# Submitted via: ExactAudioCopyFreeDBPlugin 1.0
#
DISCID=8e11431c
DTITLE=Various Artist - The Complete Goldwax Singles, 1962-1970
DYEAR=2010
DGENRE=Rhythm and Blues
TTITLE0=Percy Milem - I Don't Know What You've Got (But It's Got Me)
TTITLE1=Percy Milem - She's About a Mover
TTITLE2=The Terry's - Stay Away from Brenda
TTITLE3=The Terry's - I Don't Feel Guilty
TTITLE4=Ivory Joe Hunter - Did She Ask About Me?
TTITLE5=Ivory Joe Hunter - From the First Time We Met
TTITLE6=Timmy Thomas - It's My Life
TTITLE7=Timmy Thomas - Whole Lotta Shaking Going On
TTITLE8=James Carr - I'm a Fool for You
TTITLE9=James Carr - Gonna Send You Back to Georgia
TTITLE10=Wee Willie Walker - Ticket to Ride
TTITLE11=Wee Willie Walker - There Goes My Used to Be
TTITLE12=Spencer Wiggins - The Power of a Woman
TTITLE13=Spencer Wiggins - Lonely Man
TTITLE14=Jeanne Newman - He Called Me Baby
TTITLE15=Jeanne Newman - Whem Will the Good Apples Fall
TTITLE16=James Carr - A Man Needs a Woman
TTITLE17=James Carr - Stonger Than Love
TTITLE18=B.B. Jasper - O'Ketchee-Me Doggie Creek
TTITLE19=B.B. Jasper - Hard Luck Guy
TTITLE20=Spencer Wiggins - That's How Much I Love You
TTITLE21=Spencer Wiggins - I'm a Poor Man's Son
TTITLE22=The Five C's - Love is a Tricky Thing
TTITLE23=The Five C's - If You're Looking for a Man
TTITLE24=Willie Walker - You Name It, I've Had It
TTITLE25=Willie Walker - You're Running Too Fast
TTITLE26=James Carr - Life Turned Her That Way
TTITLE27=James Carr - A Message to Young Lovers
EXTD=YEAR: 2010
EXTT0=
EXTT1=
EXTT2=
EXTT3=
EXTT4=
EXTT5=
EXTT6=
EXTT7=
EXTT8=
EXTT9=
EXTT10=
EXTT11=
EXTT12=
EXTT13=
EXTT14=
EXTT15=
EXTT16=
EXTT17=
EXTT18=
EXTT19=
EXTT20=
EXTT21=
EXTT22=
EXTT23=
EXTT24=
EXTT25=
EXTT26=
EXTT27=
PLAYORDER=
